<svg id="Layer_1" data-name="Layer 1" xmlns="http://www.w3.org/2000/svg" viewBox="0 0 426.73 512"><defs><style>.cls-1{fill:#fdd834;}.cls-2{fill:#ffb301;}.cls-3{fill:#f57c00;}.cls-4{fill:#d84315;}.cls-5{fill:#ad1457;}.cls-6{fill:#e91e63;}.cls-7{fill:#ffeb3a;}</style></defs><title>beach2</title><path class="cls-1" d="M450.41,333.49A196.73,196.73,0,0,1,438.89,376H65.47A196.73,196.73,0,0,1,54,333.49Z" transform="translate(-43 0)"/><path class="cls-2" d="M438.89,376A190.63,190.63,0,0,1,416,418.48H88.34A190.63,190.63,0,0,1,65.47,376Z" transform="translate(-43 0)"/><path class="cls-3" d="M416,418.48A194.88,194.88,0,0,1,375.57,461H128.79a195.12,195.12,0,0,1-40.45-42.49Z" transform="translate(-43 0)"/><path class="cls-4" d="M375.57,461a200.39,200.39,0,0,1-246.78,0Z" transform="translate(-43 0)"/><path class="cls-5" d="M452.71,302.93a200.39,200.39,0,0,1-2.3,30.56H54A200.76,200.76,0,0,1,239.38,102.83c4.18-.26,8.53-.42,12.8-.42A200.52,200.52,0,0,1,452.71,302.93Z" transform="translate(-43 0)"/><path class="cls-6" d="M427.11,302.93a201.67,201.67,0,0,1-2.3,30.56H54A200.76,200.76,0,0,1,239.38,102.83,200.45,200.45,0,0,1,427.11,302.93Z" transform="translate(-43 0)"/><path class="cls-7" d="M372.41,332.8a43.33,43.33,0,0,0,3.5-17.06,42.67,42.67,0,1,0-85.33,0,43.68,43.68,0,0,0,3.5,17.06" transform="translate(-43 0)"/><path d="M125,163.22a109.6,109.6,0,0,1,8.46-7.51,8.53,8.53,0,0,0-10.73-13.26,124.51,124.51,0,0,0-9.8,8.7A8.54,8.54,0,1,0,125,163.22Z" transform="translate(-43 0)"/><path d="M55,50.52A81.19,81.19,0,0,1,103.56,47,47.69,47.69,0,0,0,89.2,50.52c-28.59,12-37,48.47-37.35,50a8.55,8.55,0,0,0,6.46,10.18,9.83,9.83,0,0,0,1.87.21,8.55,8.55,0,0,0,8.33-6.66c.06-.29,6.91-29.53,27.31-38a38.06,38.06,0,0,1,27.87.73c-20.29,10-49.09,33.14-54.92,85.69a8.53,8.53,0,0,0,17,1.87C91.5,102.64,122,85,137.57,79.25c2.12,19.19,9.78,34.53,20.54,56,6.14,12.3,13.79,27.59,22.23,47.27,20.48,47.79,18.22,119.68,16.89,142.35H61.39A189.79,189.79,0,0,1,91.26,199.47c1.06-1.71,2.2-3.35,3.34-5l1.35-2a8.54,8.54,0,0,0-14.12-9.61l-1.28,1.86c-1.28,1.86-2.56,3.73-3.66,5.5A207.23,207.23,0,0,0,57.28,378.93c.08.2.15.39.24.59a209.4,209.4,0,0,0,64.85,87.27,7.53,7.53,0,0,0,1,.81,209,209,0,0,0,257.56,0,7.43,7.43,0,0,0,1-.81,209.34,209.34,0,0,0,64.86-87.27c.09-.2.16-.39.24-.59A207.22,207.22,0,0,0,451,239.3a8.53,8.53,0,0,0-16.21,5.34A189.53,189.53,0,0,1,443,324.91H383.59a52.33,52.33,0,0,0,.86-9.17,51.2,51.2,0,0,0-102.4,0,52.32,52.32,0,0,0,.85,9.17H244.38c10.88-30,27.55-67.15,50.06-92.11C308.77,217,321,205,330.74,195.35c17.18-16.88,29.42-28.92,37.63-46.44,12.94,10.47,36,37.05,24.75,88a8.53,8.53,0,0,0,16.65,3.69c11.45-51.59-8.29-82.83-24.28-98.83a38.16,38.16,0,0,1,26.59,8.31c16.57,14.64,13.59,44.53,13.56,44.82a8.53,8.53,0,0,0,7.54,9.39,7.61,7.61,0,0,0,1,.06,8.54,8.54,0,0,0,8.46-7.6c.18-1.57,4-38.84-19.13-59.4a47.82,47.82,0,0,0-12.2-7.85,82.15,82.15,0,0,1,44.55,18.91,8.54,8.54,0,0,0,11.4-12.68,91.59,91.59,0,0,0-73-22.18,52.78,52.78,0,0,1,43.27-6.69A8.53,8.53,0,1,0,443,90.71a71.47,71.47,0,0,0-63.59,12.45A61.45,61.45,0,0,0,357,62a8.54,8.54,0,1,0-11.1,12.94,44,44,0,0,1,16.74,32.87,52.23,52.23,0,0,0-18.88-17.62c-29.08-15.94-66.94-1.17-68.54-.52a8.53,8.53,0,0,0,6.32,15.85c.32-.13,31.9-12.48,54-.36a36.11,36.11,0,0,1,13.8,14c-38.27-12.27-73.68,13.91-88.81,32.32a8.54,8.54,0,0,0,13.18,10.85c1.61-2,38.4-45.63,80.14-22.63-6.82,15.82-17.43,26.27-35.05,43.59-9.94,9.78-22.33,21.95-37,38.18-25.83,28.67-44.16,71.13-55.47,103.55H214.39c1.47-25,3.5-98.13-18.34-149.06-8.63-20.14-16.4-35.69-22.65-48.18-11.07-22.1-17.65-35.42-19.06-52.6,46.72-8.19,67.62,45,68.52,47.35a8.53,8.53,0,0,0,16-6c-8.37-22.34-33.44-58.64-73.73-59.32a36.12,36.12,0,0,1,17.66-8.75c24.71-4.27,50.81,17.6,51.07,17.81a8.53,8.53,0,0,0,11.1-13c-1.31-1.12-32.37-27.37-65-21.67a52.18,52.18,0,0,0-23.56,10.55,44,44,0,0,1,26.46-25.68A8.54,8.54,0,1,0,176.47.61a61.48,61.48,0,0,0-34.55,31.75A71.5,71.5,0,0,0,85.78,0a8.54,8.54,0,0,0,0,17.07,52.81,52.81,0,0,1,38.8,20.34,91.59,91.59,0,0,0-76.25-2.55A8.53,8.53,0,1,0,55,50.54ZM411.75,409.93H92.61A193.16,193.16,0,0,1,78.2,384.49h348A193.1,193.1,0,0,1,411.75,409.93ZM156.69,469.5h191a192,192,0,0,1-191,0Zm216-17.07h-241A193.69,193.69,0,0,1,105.58,427h293.2a193.69,193.69,0,0,1-26.1,25.44Zm60.5-85h-362A188.34,188.34,0,0,1,64.06,342H440.31a188.38,188.38,0,0,1-7.13,25.45ZM299.11,315.74a34.14,34.14,0,1,1,68.27,0,34.76,34.76,0,0,1-1.39,9.17H300.5A34.76,34.76,0,0,1,299.11,315.74Z" transform="translate(-43 0)"/></svg>